<?xml version="1.0" encoding="UTF-8"?>
<svg width="168px" height="32px" viewBox="0 0 168 32" version="1.1" xmlns="http://www.w3.org/2000/svg" xmlns:xlink="http://www.w3.org/1999/xlink">
    <!-- Generator: Sketch 58 (84663) - https://sketch.com -->
    <title>UI/Logo/White</title>
    <desc>Created with Sketch.</desc>
    <defs>
        <polygon id="path-1" points="0.125739837 0.271462114 23.565458 0.271462114 23.565458 30.3588076 0.125739837 30.3588076"></polygon>
        <polygon id="path-3" points="0.154784607 0.271416802 23.5505505 0.271416802 23.5505505 30.3587623 0.154784607 30.3587623"></polygon>
        <polygon id="path-5" points="0.323525203 0.271462114 23.7623371 0.271462114 23.7623371 30.3588076 0.323525203 30.3588076"></polygon>
    </defs>
    <g id="UI/Logo/White" stroke="none" stroke-width="1" fill="none" fill-rule="evenodd">
        <g id="Group-22">
            <g id="Group-3" transform="translate(33.530623, 0.181654)">
                <mask id="mask-2" fill="white">
                    <use xlink:href="#path-1"></use>
                </mask>
                <g id="Clip-2"></g>
                <path d="M16.6993832,10.7674534 C16.6993832,7.96809951 14.6879989,6.3504735 11.8016466,6.3504735 C8.9587935,6.3504735 6.94786233,7.96809951 6.94786233,10.7674534 L6.94786233,19.8633147 C6.94786233,22.6622155 8.9587935,24.2802946 11.8016466,24.2802946 C14.6879989,24.2802946 16.6993832,22.6622155 16.6993832,19.8633147 L16.6993832,10.7674534 Z M23.565458,20.4759282 C23.565458,27.3850491 17.00569,30.3588529 11.8016466,30.3588529 C6.59760325,30.3588529 0.125739837,27.3850491 0.125739837,20.4759282 L0.125739837,10.155293 C0.125739837,3.24481279 6.59760325,0.271462114 11.8016466,0.271462114 C17.00569,0.271462114 23.565458,3.24481279 23.565458,10.155293 L23.565458,20.4759282 Z" id="Fill-1" fill="#FFFFFF" mask="url(#mask-2)"></path>
            </g>
            <g id="Group-6" transform="translate(60.264499, 0.181654)">
                <mask id="mask-4" fill="white">
                    <use xlink:href="#path-3"></use>
                </mask>
                <g id="Clip-5"></g>
                <path d="M23.5505505,21.1749964 C23.5505505,27.3854116 18.6528139,30.3587623 11.9181429,30.3587623 C6.45219816,30.3587623 0.154784607,27.2100555 0.154784607,21.087998 C0.154784607,20.0820793 0.416685962,19.8632241 1.42260466,19.8632241 L5.66468163,19.8632241 C6.67060033,19.8632241 7.15135696,19.9946279 7.23926157,21.087998 C7.28276076,21.6562062 7.50116293,22.2244143 8.06982417,22.880527 C8.9447922,23.9299449 10.7377743,24.3241563 12.3554003,24.3241563 C14.7170437,24.3241563 16.6414296,23.7989943 16.6414296,21.3503525 C16.6414296,18.9012577 12.7491586,18.8573054 9.03179057,17.6764837 C4.61526374,16.2772598 0.548089756,14.52823 0.548089756,8.9743807 C0.548089756,3.28912759 5.70863393,0.490679892 11.1750318,0.271371491 C16.728428,0.271371491 22.8069862,2.80791783 22.8069862,8.58107556 C22.8069862,9.63004033 22.5450849,9.80494331 21.5391662,9.80494331 L17.2531369,9.80494331 C16.4221212,9.80494331 16.2911705,9.19323599 16.0727683,8.62457474 C15.8974122,8.18686417 15.6790101,7.83751133 15.1543011,7.31234927 C14.3237385,6.52528585 12.7491586,6.1319807 11.4369331,6.1319807 C9.99421008,6.1319807 7.58861442,6.70018883 7.58861442,8.66807393 C7.58861442,11.3360241 14.0174318,12.2979905 15.7664616,12.9980555 C18.9156215,13.9595688 23.5505505,15.227842 23.5505505,21.1749964" id="Fill-4" fill="#FFFFFF" mask="url(#mask-4)"></path>
            </g>
            <path d="M102.531752,18.9956872 L99.252095,9.33071154 L95.9719844,18.9956872 L102.531752,18.9956872 Z M107.473441,29.8840774 C106.511475,29.8840774 106.161669,29.622176 105.81141,28.572305 L104.587089,25.1177446 L93.8736017,25.1177446 L92.6483746,28.572305 C92.2990218,29.622176 91.9492158,29.8840774 90.9867963,29.8840774 L86.3953665,29.8840774 C85.4334001,29.8840774 85.4334001,29.1844655 85.6522554,28.6597565 L95.3602771,2.46554298 C95.7096299,1.54752889 96.1908397,1.1093652 97.1532592,1.1093652 L101.351384,1.1093652 C102.313803,1.1093652 102.750608,1.54752889 103.144819,2.46554298 L112.808888,28.6597565 C113.027291,29.1844655 113.027291,29.8840774 112.065777,29.8840774 L107.473441,29.8840774 Z" id="Fill-7" fill="#FFFFFF"></path>
            <path d="M138.959875,28.6161214 C138.959875,29.4036379 138.697973,29.8843946 137.691602,29.8843946 L133.712332,29.8843946 C132.618962,29.8843946 132.313561,29.271781 131.744447,28.3972661 L122.47323,13.3982027 L122.47323,28.6161214 C122.47323,29.6220401 121.992473,29.8843946 121.204957,29.8843946 L116.875881,29.8843946 C116.087912,29.8843946 115.607608,29.6220401 115.607608,28.6161214 L115.607608,2.37750244 C115.607608,1.59043902 115.869962,1.10968238 116.875881,1.10968238 L120.986554,1.10968238 C122.080378,1.10968238 122.386231,1.7213897 122.954439,2.59545149 L132.225657,17.5523751 L132.225657,2.37750244 C132.225657,1.37203686 132.706413,1.10968238 133.49393,1.10968238 L137.691602,1.10968238 C138.478665,1.10968238 138.959875,1.37203686 138.959875,2.37750244 L138.959875,28.6161214 Z" id="Fill-9" fill="#FFFFFF"></path>
            <g id="Group-13" transform="translate(143.184824, 0.181654)">
                <mask id="mask-6" fill="white">
                    <use xlink:href="#path-5"></use>
                </mask>
                <g id="Clip-12"></g>
                <path d="M16.8967154,10.7674534 C16.8967154,7.96809951 14.8853312,6.3504735 11.9989789,6.3504735 C9.15657886,6.3504735 7.14519458,7.96809951 7.14519458,10.7674534 L7.14519458,19.8633147 C7.14519458,22.6622155 9.15657886,24.2802946 11.9989789,24.2802946 C14.8853312,24.2802946 16.8967154,22.6622155 16.8967154,19.8633147 L16.8967154,10.7674534 Z M23.7623371,20.4759282 C23.7623371,27.3850491 17.2030222,30.3588529 11.9989789,30.3588529 C6.7949355,30.3588529 0.323525203,27.3850491 0.323525203,20.4759282 L0.323525203,10.155293 C0.323525203,3.24481279 6.7949355,0.271462114 11.9989789,0.271462114 C17.2030222,0.271462114 23.7623371,3.24481279 23.7623371,10.155293 L23.7623371,20.4759282 Z" id="Fill-11" fill="#FFFFFF" mask="url(#mask-6)"></path>
            </g>
            <path d="M22.6982836,23.9888501 L22.6982836,29.1693314 C22.6982836,29.6682127 23.1024635,30.0723926 23.6013448,30.0723926 L28.7161242,30.0723926 C29.2145524,30.0723926 29.6196386,29.6682127 29.6196386,29.1693314 L29.6196386,7.41384737 L22.6982836,23.9888501 Z" id="Fill-14" fill="#FFFFFF"></path>
            <path d="M7.04097778,1.99520802 C7.04097778,1.99520802 6.96711978,1.7836026 6.82348184,1.56565355 C6.75188943,1.43379664 6.65175068,1.32006439 6.52759675,1.23850341 C6.43606721,1.1696297 6.33003794,1.12658363 6.21313388,1.10755274 L6.21132141,1.10755274 C6.17643144,1.10166222 6.14290081,1.09033431 6.10529214,1.09033431 L6.03913713,1.09033431 L6.03098103,1.08897496 L0.904420596,1.08897496 C0.45855393,1.08897496 0.0888108401,1.41295328 0.0149528455,1.83888282 C0.00543739837,1.89189745 0,1.94445897 0,1.99520802 L0,29.101092 C0,29.6013327 0.404633062,30.0064189 0.904420596,30.0064189 L6.03098103,30.0064189 C6.53076856,30.0064189 6.93630786,29.6013327 6.93630786,29.101092 L6.93630786,18.6064601 L10.2141528,26.4548915 L13.690916,18.0509392 L7.04097778,1.99520802 Z" id="Fill-16" fill="#FFFFFF"></path>
            <path d="M20.1729745,1.99720173 C20.1729745,1.60253724 19.8630428,1.09323425 19.2087425,1.09323425 L14.0726667,1.09323425 C13.4455534,1.07692206 13.1324499,1.99856108 13.1324499,1.99856108 L11.1944705,6.68378602 L14.6916238,15.1267063 L20.1729745,1.99720173 Z" id="Fill-18" fill="#FFFFFF"></path>
            <path d="M23.4853923,1.090289 L28.6214682,1.090289 C29.2753153,1.090289 29.5861533,1.59959198 29.5870595,1.99516271 L18.2677554,29.1010467 C18.0221663,29.6583801 17.8622162,30.0063736 17.3624286,30.0063736 L12.2354151,30.0063736 C11.5435061,30.0063736 11.3309945,29.4834771 11.3309945,29.1010467 L22.5451755,1.99516271 C22.5451755,1.99516271 22.8528416,1.090289 23.4704395,1.090289 L23.4853923,1.090289 Z" id="Fill-20" fill="#FFFFFF"></path>
        </g>
    </g>
</svg>